<?xml version="1.0" encoding="UTF-8" standalone="no"?>
<!-- Created with Inkscape (http://www.inkscape.org/) -->

<svg
   xmlns:dc="http://purl.org/dc/elements/1.1/"
   xmlns:cc="http://creativecommons.org/ns#"
   xmlns:rdf="http://www.w3.org/1999/02/22-rdf-syntax-ns#"
   xmlns:svg="http://www.w3.org/2000/svg"
   xmlns="http://www.w3.org/2000/svg"
   xmlns:sodipodi="http://sodipodi.sourceforge.net/DTD/sodipodi-0.dtd"
   xmlns:inkscape="http://www.inkscape.org/namespaces/inkscape"
   version="1.1"
   id="svg54"
   width="311"
   height="64"
   viewBox="0 0 311 64"
   sodipodi:docname="logo.svg"
   inkscape:version="0.92.4 (5da689c313, 2019-01-14)">
  <metadata
     id="metadata60">
    <rdf:RDF>
      <cc:Work
         rdf:about="">
        <dc:format>image/svg+xml</dc:format>
        <dc:type
           rdf:resource="http://purl.org/dc/dcmitype/StillImage" />
        <dc:title></dc:title>
      </cc:Work>
    </rdf:RDF>
  </metadata>
  <defs
     id="defs58" />
  <sodipodi:namedview
     pagecolor="#ffffff"
     bordercolor="#666666"
     borderopacity="1"
     objecttolerance="10"
     gridtolerance="10"
     guidetolerance="10"
     inkscape:pageopacity="0"
     inkscape:pageshadow="2"
     inkscape:window-width="1920"
     inkscape:window-height="1001"
     id="namedview56"
     showgrid="false"
     inkscape:zoom="4"
     inkscape:cx="106.225"
     inkscape:cy="53.460854"
     inkscape:window-x="-9"
     inkscape:window-y="-9"
     inkscape:window-maximized="1"
     inkscape:current-layer="svg54"
     inkscape:pagecheckerboard="true" />
  <path
     style="fill:#11608a;fill-opacity:1;stroke-width:0.33175266"
     d="m 29.978975,63.772191 c -1.593083,-0.511049 -1.355588,-1.047231 0.331752,-0.748978 2.31013,0.408333 3.147968,0.225681 6.164233,-1.343847 1.919916,-0.999037 3.482614,-1.566185 4.700667,-1.706009 1.675423,-0.192324 1.787403,-0.164297 1.369329,0.342733 -0.25125,0.304706 -0.930025,0.552186 -1.514507,0.552186 -0.609513,0 -2.458473,0.703143 -4.3551,1.656206 -3.417729,1.717417 -4.565497,1.931278 -6.696374,1.247709 z m -7.21575,-1.041426 c -1.182868,-0.515519 -2.159294,-1.530736 -1.472245,-1.530736 0.23843,0 1.082817,0.314326 1.876413,0.698499 1.569531,0.759796 1.91812,0.749097 6.396891,-0.196348 2.360808,-0.498356 3.054894,-0.530127 4.263333,-0.195151 1.899924,0.526652 1.477109,0.865918 -0.930457,0.7466 -1.062421,-0.05266 -2.828327,0.136612 -3.924236,0.420592 -2.403023,0.622688 -4.85935,0.645051 -6.209699,0.05654 z m 14.265494,0.128027 c 0.112769,-0.182464 0.709015,-0.331753 1.324993,-0.331753 1.728734,0 2.592445,-0.460489 5.311433,-2.831803 2.313892,-2.018015 5.286493,-3.768134 5.699213,-3.355413 0.336304,0.336301 -0.276095,0.869991 -1.74275,1.518764 -0.818732,0.362161 -2.342758,1.467036 -3.386724,2.455274 -1.04397,0.988239 -2.375896,2.039771 -2.959844,2.33674 -1.163205,0.591555 -4.586998,0.759419 -4.246321,0.208191 z M 25.417375,61.456046 c -0.364927,-0.213022 -2.338654,-0.490778 -4.38606,-0.617236 -4.706584,-0.290701 -5.338261,-0.635804 -7.722912,-4.219244 -1.003552,-1.508048 -2.384472,-3.26846 -3.068711,-3.912027 -1.4530033,-1.366636 -1.6482605,-2.124975 -0.3317524,-1.288461 1.5584734,0.990259 2.4062654,1.905849 3.4437064,3.719107 0.55039,0.961983 1.073209,1.749059 1.161819,1.749059 0.08861,0 0.05896,-0.165282 -0.06589,-0.367293 -0.577019,-0.933638 3.734901,1.02372 4.835137,2.194866 0.75374,0.802321 0.756534,0.826448 0.09569,0.826448 -0.374392,0 -0.874731,-0.233775 -1.111863,-0.519504 -0.482387,-0.581247 -1.717825,-1.261599 -2.967615,-1.63426 l -0.829381,-0.247302 0.96704,1.026987 c 1.217685,1.293172 2.254343,1.604124 6.066763,1.819763 2.75573,0.155871 6.070427,1.079798 6.070427,1.692055 0,0.328093 -1.473353,0.175755 -2.156393,-0.222958 z M 44.84714,60.343858 c 0.199427,-0.240295 0.910486,-0.612701 1.580128,-0.827566 1.671771,-0.536411 2.121672,-0.992598 4.203436,-4.262163 1.095838,-1.721096 2.338683,-3.214561 3.145161,-3.77938 1.680049,-1.17663 1.876818,-0.388804 0.218757,0.87586 -0.613038,0.467589 -1.606355,1.642296 -2.207366,2.610459 -2.835772,4.568115 -3.407487,5.095762 -6.054337,5.58768 -1.011689,0.188021 -1.179629,0.149177 -0.885779,-0.20489 z M 10.758489,55.716792 C 9.2223847,54.796065 8.0640049,52.745282 7.3473435,49.677752 7.12433,48.723183 6.508227,47.343557 5.9782252,46.611909 4.7816534,44.960089 4.7245526,44.22602 5.8762527,45.301011 c 1.0857321,1.013412 1.8827896,2.57668 2.6090159,5.117056 0.7344506,2.56915 1.5929664,3.941749 3.0152154,4.820748 0.629427,0.389007 1.144412,0.844401 1.144412,1.011982 0,0.474297 -0.386946,0.364758 -1.886409,-0.534005 z m 40.70147,0.528548 c 0,-0.179956 0.246586,-0.519691 0.54797,-0.754963 2.133584,-1.665581 2.996569,-2.894257 3.583781,-5.102426 0.745119,-2.801966 1.503851,-4.361121 2.636893,-5.418692 1.147334,-1.070911 1.09623,-0.343168 -0.09099,1.29574 -0.52396,0.723306 -1.20199,2.307701 -1.506728,3.52088 -0.62749,2.498042 -1.493925,4.359672 -2.398665,5.153782 -0.920255,0.807731 -2.772258,1.679985 -2.772258,1.305679 z M 26.674164,53.542955 C 25.54076,53.183803 23.529219,52.162144 22.204075,51.272599 20.019231,49.80595 19.732944,49.698512 19.131766,50.119592 18.032068,50.889849 17.0119,50.689136 16.330352,49.568418 l -0.617578,-1.015523 -0.233598,0.930728 c -0.504196,2.008878 -1.31992,2.206162 -3.840565,0.928854 -1.420982,-0.720066 -1.6477334,-0.971162 -1.6477334,-1.82464 0,-0.547331 0.2965564,-1.286224 0.6635044,-1.653173 l 0.663505,-0.663505 h -1.286388 c -1.7639462,0 -2.1710502,-0.584919 -1.8886707,-2.713607 0.3063228,-2.309175 0.6850921,-2.926188 1.7963133,-2.926188 0.8729564,0 2.6450644,0.962487 1.8130154,0.984708 -0.217312,0.0058 -0.487377,-0.138739 -0.600146,-0.321203 -0.289338,-0.468159 -1.6779982,-0.41274 -2.0782608,0.08294 -0.4672291,0.57861 -0.8391321,3.068281 -0.5802002,3.884104 0.2662491,0.838876 1.93858,0.917877 3.715312,0.175511 0.660779,-0.276092 1.246149,-0.457249 1.300823,-0.402576 0.05468,0.05468 -0.602725,0.619127 -1.460886,1.254337 -1.234476,0.913763 -1.560292,1.355655 -1.560292,2.11616 0,0.790069 0.256852,1.104094 1.442508,1.763581 2.494878,1.387709 3.328995,0.713654 3.386481,-2.736631 l 0.02764,-1.658763 0.50479,1.658763 c 0.947567,3.113741 1.949215,3.518994 3.860328,1.561839 1.667225,-1.707395 1.620727,-2.577357 -0.181486,-3.395412 -0.775472,-0.352 -1.662393,-0.643279 -1.970937,-0.647287 -0.308543,-0.004 -0.630404,-0.119251 -0.715245,-0.256099 -0.08485,-0.136848 0.540824,-0.200252 1.390369,-0.140902 1.978522,0.138225 3.369266,-0.378549 3.369266,-1.251962 0,-1.094562 -1.388095,-3.604954 -2.095628,-3.789975 -0.677492,-0.17717 -2.130905,1.053209 -3.281152,2.777632 -0.512332,0.768077 -0.511846,0.70237 0.0065,-0.888961 0.340224,-1.044351 0.630985,-1.519702 0.741295,-1.211909 0.159496,0.44504 0.236626,0.44001 0.63622,-0.04147 1.315642,-1.58525 2.511395,-1.315637 3.622924,0.816875 1.185605,2.274635 0.890555,3.337857 -1.062302,3.827994 l -0.930731,0.233598 1.015525,0.617577 c 1.079722,0.656618 1.397989,2.102682 0.631482,2.86919 -0.552437,0.552438 0.07615,1.195198 2.679247,2.739663 1.94985,1.156878 6.487261,2.602476 6.893502,2.196236 0.24828,-0.248277 -0.93483,-1.869715 -1.364267,-1.869715 -0.941467,0 -3.196794,-1.883549 -3.98136,-3.325051 -0.910123,-1.672199 -1.839807,-5.140172 -1.84766,-6.892281 l -0.0049,-1.094134 1.417543,0.975297 c 3.367339,2.316788 5.594885,5.732013 5.627719,8.628292 0.0096,0.8481 0.219829,1.836474 0.467141,2.196385 0.386376,0.562276 0.449668,-0.143114 0.449668,-5.011591 V 41.390148 L 28.962713,41.180072 C 27.719529,41.06453 25.877729,40.686275 24.869824,40.339504 19.154644,38.373196 16.925441,35.987894 12.773808,27.39647 11.404836,24.56351 9.7707766,21.530194 9.142565,20.655769 8.514353,19.781343 8.0003613,19.012307 8.0003613,18.946801 c 0,-0.06551 0.3479204,-0.05259 0.7731568,0.0287 1.4054439,0.268667 3.5529239,-0.570153 5.0922729,-1.989074 1.657876,-1.528177 2.755933,-3.462134 3.585042,-6.314171 0.581384,-1.9998924 0.563016,-1.9938344 2.271604,-0.7492894 0.744625,0.5423884 1.434476,0.6836504 3.317526,0.6793314 2.747204,-0.0063 5.152159,-1.0162654 7.240817,-3.0407854 1.343452,-1.302197 1.143213,-1.340275 4.009364,0.762452 3.798096,2.7864404 6.651478,3.1353254 9.799684,1.198212 l 1.665166,-1.024587 0.22393,1.193643 c 0.930129,4.9580074 4.065901,8.5358784 8.064871,9.2018954 l 1.422698,0.236947 -0.696046,1.046882 c -0.382826,0.575785 -2.092302,3.89805 -3.798834,7.382809 -3.444419,7.033539 -5.32539,9.519358 -8.63667,11.413882 -1.738424,0.994624 -5.428631,2.067522 -8.540813,2.483172 l -1.575825,0.210464 v 5.527407 c 0,4.752669 0.06304,5.435688 0.449807,4.873025 0.247394,-0.359911 0.529623,-1.563232 0.627168,-2.674045 0.09755,-1.110814 0.402645,-2.454413 0.67799,-2.985774 0.746563,-1.440716 2.936499,-3.808023 4.672275,-5.050699 l 1.534824,-1.09881 v 1.165417 c 0,4.435971 -2.691125,9.515905 -5.319594,10.041596 -0.823556,0.164712 -1.978965,1.306674 -1.978965,1.955931 0,0.325897 2.656145,-0.198268 4.473281,-0.882761 1.672112,-0.629862 5.811052,-3.24676 5.811052,-3.674111 0,-0.127529 -0.149289,-0.324135 -0.331753,-0.436905 -0.182464,-0.112769 -0.327214,-0.45748 -0.321664,-0.766023 0.0088,-0.492633 0.05394,-0.485517 0.369957,0.0584 0.577976,0.994767 2.390036,2.511972 3.012772,2.522544 0.737808,0.01255 1.533255,-1.21513 2.083397,-3.215413 l 0.436006,-1.585277 0.02966,1.726093 c 0.03608,2.098982 0.584781,3.416074 1.423147,3.416074 0.916353,0 3.177968,-1.234054 3.555944,-1.940309 0.467641,-0.8738 -0.281907,-1.79717 -2.733845,-3.367823 -1.127334,-0.722146 -1.838208,-1.316126 -1.579717,-1.319955 0.630965,-0.0093 0.167427,-0.442461 -0.598676,-0.559378 -0.446228,-0.06809 -0.597371,0.104316 -0.564909,0.644409 0.03333,0.554562 0.227625,0.717791 0.78365,0.658357 0.488655,-0.05223 0.739333,0.100407 0.739333,0.450186 0,0.346273 -0.181399,0.459599 -0.524763,0.327841 -0.288617,-0.110756 -0.806444,-0.201371 -1.15072,-0.201371 -0.422199,0 -0.56333,-0.163212 -0.433557,-0.501391 0.137464,-0.358236 0.04032,-0.443032 -0.340262,-0.296991 -0.292962,0.11242 -0.456439,0.327732 -0.363277,0.47847 0.09316,0.150735 -0.0054,0.382093 -0.219043,0.514123 -0.242583,0.149926 -0.299545,0.09625 -0.151707,-0.142952 0.141227,-0.228514 0.02276,-0.383012 -0.29371,-0.383012 -0.750982,0 -3.063558,1.226564 -3.267097,1.732831 -0.135578,0.337226 -0.175627,0.338039 -0.196478,0.0039 -0.0144,-0.230722 0.458995,-0.715354 1.052003,-1.076918 1.049914,-0.640147 1.056201,-0.657421 0.239694,-0.658628 -1.08725,-0.0017 -2.313148,-0.868983 -2.313148,-1.636646 0,-1.011523 1.314357,-3.642521 2.00409,-4.011656 0.716586,-0.383506 1.819395,0.03645 2.557097,0.973774 0.343298,0.436191 0.380813,0.298246 0.218957,-0.805131 -0.289776,-1.975404 0.531471,-2.613842 2.970328,-2.309128 2.662481,0.332656 3.233736,1.122549 2.357262,3.259473 -0.241222,0.588122 -0.206665,0.590716 0.817024,0.06135 1.531744,-0.792096 2.417946,-0.14335 2.949423,2.159135 0.346847,1.502638 0.328322,1.856485 -0.134164,2.562329 -0.468714,0.715345 -0.710421,0.795622 -1.910793,0.634619 -1.335708,-0.179155 -1.354446,-0.168639 -0.668992,0.375481 1.763737,1.400073 1.602206,2.522395 -0.559444,3.886984 -2.124044,1.340848 -3.313769,1.04994 -3.811178,-0.931897 l -0.230535,-0.91853 -0.542578,1.086261 c -0.663738,1.328829 -1.805621,1.583724 -2.821095,0.629733 l -0.720697,-0.677058 -1.486169,1.18042 c -4.442079,3.528216 -10.612698,4.728683 -15.821752,3.078054 z m 1.142361,-4.534837 c -1.462672,-2.020496 -2.768728,-4.33399 -3.043419,-5.39098 -0.118549,-0.45616 0.388903,0.290283 1.127669,1.658763 0.738767,1.36848 1.885872,3.159944 2.549125,3.981032 l 1.205908,1.492887 -0.206075,-1.581541 c -0.271656,-2.084843 -0.907311,-3.246801 -2.912394,-5.323772 -1.499353,-1.553109 -1.693989,-1.661105 -2.003186,-1.111467 -0.72752,1.293271 1.072294,5.711112 2.918243,7.163134 1.435925,1.129498 1.576492,0.786675 0.364129,-0.888056 z m 7.582196,-0.122127 c 0.685528,-0.933875 1.751489,-2.613372 2.368805,-3.732218 0.617315,-1.118846 1.022092,-1.661043 0.899503,-1.204883 -0.273228,1.016697 -2.231833,4.313329 -3.35734,5.650916 -1.072016,1.27402 -0.452726,1.268639 1.002089,-0.0087 1.39016,-1.220578 2.587627,-3.905373 2.682366,-6.014036 l 0.07096,-1.579398 -1.260723,0.998512 c -1.475085,1.168287 -2.361282,2.344397 -3.261955,4.329077 -0.577057,1.271578 -0.898867,3.258687 -0.527738,3.258687 0.07569,0 0.698508,-0.764079 1.384031,-1.697953 z m 19.54494,-3.823659 c 0.359636,-0.359636 0.475209,-0.824668 0.339413,-1.365713 -0.113247,-0.451217 -0.293054,-1.256145 -0.399573,-1.788731 -0.266862,-1.334322 -1.167275,-1.762741 -2.383225,-1.133947 -0.525907,0.271954 -1.049765,0.425775 -1.164133,0.341821 -0.114365,-0.08395 -0.131926,-0.05175 -0.03902,0.07156 0.196656,0.261033 -1.141061,1.766314 -1.569688,1.766314 -0.159424,0 0.144724,-0.634477 0.675883,-1.409949 1.972286,-2.879453 1.648138,-3.805872 -1.386674,-3.96314 -2.925195,-0.151588 -3.053869,0.344791 -1.306846,5.041337 0.101807,0.273695 -0.278745,-0.131464 -0.845677,-0.900357 -1.204072,-1.633002 -2.409986,-2.508677 -3.093543,-2.246372 -0.517707,0.198662 -1.931444,2.855332 -1.931444,3.629535 0,0.803194 0.999325,1.507711 2.138621,1.507711 1.904903,0 3.221955,-0.379847 3.032143,-0.874487 -0.09551,-0.248888 0.02734,-0.452524 0.272946,-0.452524 0.245626,0 0.633385,-0.225067 0.861684,-0.500154 0.363296,-0.437744 0.516914,-0.398326 1.231137,0.315895 0.448825,0.448825 0.723082,0.966468 0.609457,1.150316 -0.213964,0.346198 2.404281,1.291984 3.690472,1.333105 0.397514,0.01271 0.968142,-0.222288 1.268069,-0.522215 z m -9.53612,-1.99735 c 0.229217,-0.09241 0.318117,-0.327622 0.197554,-0.522696 -0.13065,-0.211397 -0.06229,-0.257699 0.169221,-0.114618 0.45673,0.282275 0.182484,0.869372 -0.388422,0.831525 -0.2828,-0.01874 -0.276646,-0.07395 0.02163,-0.194211 z m 0.702058,-1.02367 c -0.412658,-0.526179 -0.400923,-0.537914 0.125256,-0.125256 0.319312,0.250424 0.580567,0.511679 0.580567,0.580567 0,0.273046 -0.272432,0.09731 -0.705823,-0.455311 z m -9.412633,-3.134329 c 4.128821,-0.897882 7.674129,-3.482209 9.976479,-7.272284 0.906706,-1.492602 5.118267,-10.392842 5.118267,-10.816375 0,-0.38978 -1.623293,0.100698 -3.590609,1.08491 -2.474576,1.237979 -5.176181,3.686954 -6.233834,5.650897 -0.335927,0.623775 -0.696124,1.134137 -0.80044,1.134137 -0.104313,0 -0.38762,-0.559833 -0.629564,-1.244073 -0.942599,-2.665759 -3.977721,-5.674084 -7.583998,-7.517044 -1.063424,-0.543454 -1.131214,-0.534541 -2.813688,0.369905 -2.665722,1.433011 -5.982741,4.877908 -6.786358,7.047988 l -0.669693,1.80843 -0.586107,-1.144925 c -1.531615,-2.991895 -4.454055,-5.412744 -8.011994,-6.636854 -1.031884,-0.355021 -2.002902,-0.645491 -2.157816,-0.645491 -0.493069,0 5.233835,11.058088 6.663783,12.867113 3.807772,4.817192 10.864775,6.888297 18.105572,5.313666 z M 23.41495,19.147811 c 0.522245,-0.959348 2.207173,-3.124034 3.74429,-4.810414 3.648058,-4.002318 3.965724,-4.5800334 1.852387,-3.368808 -5.113878,2.930937 -8.012816,5.177989 -10.131865,7.853506 l -1.022298,1.290756 1.948177,1.96872 1.948176,1.968721 0.355799,-1.579106 c 0.195687,-0.868508 0.783089,-2.364027 1.305334,-3.323375 z m 21.882103,1.812825 0.969773,-0.794405 -2.46266,-2.484487 c -2.582412,-2.605297 -4.894098,-4.295642 -8.765963,-6.409827 l -2.322269,-1.268045 3.519534,3.619465 c 3.524377,3.624445 4.404229,5.055388 5.124033,8.333426 0.452939,2.06273 0.09194,2.154057 3.937552,-0.996127 z m -5.664875,-1.138961 c -0.904076,-1.790944 -7.554265,-9.192093 -8.066059,-8.976905 -0.123916,0.0521 -1.309716,1.289038 -2.635115,2.748751 -2.503014,2.756665 -5.080872,6.391741 -5.499108,7.754378 l -0.241732,0.787573 1.418113,-0.787573 c 0.779964,-0.433164 2.699329,-1.629803 4.265258,-2.659197 3.300222,-2.169466 2.525045,-2.294791 7.989307,1.291652 1.915872,1.257475 3.535292,2.157261 3.598717,1.999525 0.06342,-0.157736 -0.309801,-1.128928 -0.829381,-2.158204 z m 8.650191,-1.136148 c -0.314869,-0.608893 -1.146006,-1.866696 -1.846973,-2.795116 -0.700963,-0.92842 -1.44387,-2.173951 -1.650904,-2.767847 -0.355297,-1.019213 -0.443851,-1.067218 -1.577955,-0.855407 -0.660841,0.123421 -1.260989,0.282992 -1.333666,0.3546 -0.148154,0.145976 6.706145,7.374849 6.874593,7.250275 0.05907,-0.04369 -0.150221,-0.577612 -0.465095,-1.186505 z m -29.566059,-2.570123 3.225027,-3.28379 -1.048445,-0.365489 c -1.517799,-0.52911 -1.519459,-0.52819 -2.482843,1.37621 -0.484593,0.957936 -1.450473,2.600113 -2.146398,3.64928 -0.695926,1.049168 -1.154406,1.907578 -1.018845,1.907578 0.135563,0 1.697738,-1.477705 3.471504,-3.283789 z M 5.9265464,49.743946 C 4.3966431,48.325338 3.9981336,47.135358 3.7292408,43.182618 3.5903432,41.140803 3.3002131,39.144143 3.0845085,38.745595 2.620765,37.888754 2.5711731,36.982084 2.9880514,36.982084 c 0.6903576,0 1.4585225,2.982589 1.6902082,6.562649 0.2244431,3.468149 0.3141563,3.83326 1.2227387,4.976289 0.5392889,0.678448 1.0917856,1.420151 1.227771,1.648231 0.4151086,0.696232 -0.2442487,0.462974 -1.2022208,-0.425307 z m 51.0495446,0.09355 c 0.135985,-0.22808 0.693651,-0.976212 1.239255,-1.662518 0.934928,-1.17603 1.004454,-1.471904 1.208309,-5.142167 0.154408,-2.780014 0.392799,-4.250817 0.833118,-5.140159 0.730207,-1.474839 1.296307,-1.012174 0.665864,0.5442 -0.523074,1.291311 -0.863217,3.853271 -0.511587,3.853271 0.44724,0 1.333242,-2.201242 1.333242,-3.312391 0,-0.580647 -0.308796,-2.265151 -0.686211,-3.743341 -0.684419,-2.680608 -0.658297,-5.627617 0.05379,-6.067707 0.329679,-0.203753 0.322878,-0.248523 0.431434,2.839106 0.0417,1.186016 0.354762,3.353284 0.695695,4.816153 l 0.61988,2.659761 -0.869378,1.898972 c -0.59402,1.297511 -1.016848,1.842385 -1.334976,1.720306 -0.361186,-0.138599 -0.479087,0.234178 -0.525755,1.662284 -0.07573,2.317704 -0.3848,3.125423 -1.698617,4.439242 -1.042596,1.042596 -1.92748,1.429024 -1.454059,0.634988 z M 11.64964,48.799924 c 0,-0.06889 0.261255,-0.330144 0.580567,-0.580567 0.526179,-0.412657 0.537912,-0.400923 0.125255,0.125256 -0.433391,0.552617 -0.705822,0.728357 -0.705822,0.455311 z m 39.612923,-0.95294 -0.631985,-0.746444 0.746443,0.631986 c 0.701472,0.59391 0.897471,0.860901 0.631986,0.860901 -0.06295,0 -0.398853,-0.335899 -0.746444,-0.746443 z M 16.497571,46.542208 c 0.09581,-0.155028 0.313179,-0.195983 0.483035,-0.091 0.43406,0.268263 0.385184,0.372878 -0.174207,0.372878 -0.265669,0 -0.404642,-0.126843 -0.308828,-0.281874 z m 28.99084,0.2672 c 0,-0.06889 0.261256,-0.330144 0.580568,-0.580567 0.526179,-0.412657 0.537914,-0.400923 0.125256,0.125256 -0.433391,0.552617 -0.705824,0.728357 -0.705824,0.455311 z m 4.226967,-0.568774 c 0.226498,-0.290482 0.301142,-0.658784 0.165876,-0.818444 -0.135262,-0.159659 0.01532,-0.09032 0.334633,0.154083 0.319312,0.244406 0.580567,0.525623 0.580567,0.624922 0,0.0993 -0.09823,0.08232 -0.21829,-0.03775 -0.120061,-0.120058 -0.455961,-0.03298 -0.746444,0.193525 -0.455662,0.355287 -0.471629,0.33932 -0.116342,-0.116343 z M 13.828865,44.890242 c -0.494986,-0.992223 -0.107941,-1.65679 0.570053,-0.978796 0.271094,0.271095 0.258211,0.369197 -0.04849,0.369197 -0.229725,0 -0.323912,0.151724 -0.209304,0.337163 0.114608,0.185441 0.334602,0.259156 0.488873,0.16381 0.154272,-0.09535 0.349228,0.0142 0.433237,0.243404 0.121047,0.330277 0.247398,0.326418 0.608902,-0.01858 0.386506,-0.368876 0.380174,-0.48141 -0.04147,-0.736993 -1.407376,-0.853088 -1.490847,-0.952913 -1.112868,-1.330892 0.267658,-0.267658 0.438054,-0.271598 0.597374,-0.0138 0.122595,0.198363 0.528638,0.360659 0.902319,0.360659 0.483245,0 0.621277,0.151521 0.47805,0.524763 -0.110751,0.288586 -0.201367,0.794154 -0.201367,1.123449 0,0.412152 -0.311394,0.644419 -0.999325,0.745388 -0.835707,0.122656 -1.075732,-0.0065 -1.465987,-0.788775 z m 2.105913,-1.035227 c -0.07602,-0.05163 -0.436807,-0.312887 -0.801735,-0.580568 -0.613745,-0.450192 -0.629359,-0.443152 -0.208194,0.09388 0.250422,0.319312 0.611203,0.580567 0.801737,0.580567 0.190533,0 0.28422,-0.04225 0.208192,-0.09387 z M 274.80227,44.42697 C 274.25041,44.040437 274.066,43.5789 274.066,42.584312 v -1.326954 l -1.0782,0.594982 c -0.593,0.327237 -1.40922,0.879635 -1.81381,1.227547 -0.41481,0.3567 -1.42757,0.698353 -2.32227,0.783414 -1.91546,0.18211 -3.41129,-0.75205 -3.41129,-2.130375 0,-0.671849 -0.11665,-0.792134 -0.58057,-0.598619 -2.23117,0.930715 -2.42854,0.969096 -3.03524,0.590204 -0.51856,-0.323846 -0.76658,-0.226065 -1.56878,0.618491 -1.48022,1.558381 -3.04513,2.232387 -4.5945,1.978872 -1.66316,-0.272137 -2.26142,-1.262877 -2.02816,-3.358758 0.21435,-1.926026 1.77414,-5.905363 3.34847,-8.542631 1.19393,-2.000007 1.2855,-2.073454 2.58539,-2.073454 0.7412,0 1.8308,-0.174721 2.42135,-0.388267 0.89773,-0.32462 1.21428,-0.296179 1.93113,0.173524 1.36345,0.893363 1.20508,3.190216 -0.46581,6.755794 -0.72776,1.553017 -1.24147,2.955936 -1.14155,3.117599 0.36747,0.594587 1.70088,0.268462 2.52838,-0.61839 0.5792,-0.620756 1.18595,-2.101866 1.89858,-4.634479 0.94317,-3.352042 3.03185,-8.86617 4.18212,-11.040834 0.24128,-0.45616 0.51233,-1.069713 0.60233,-1.363451 0.0933,-0.304348 0.83124,-0.702169 1.71569,-0.924877 1.33902,-0.337168 1.71857,-0.309398 2.76522,0.202315 l 1.21317,0.593126 -0.0433,2.371878 c -0.0672,3.675097 -1.78794,6.958157 -5.97126,11.392703 -1.87486,1.98745 -2.11332,2.390762 -2.11332,3.574342 0,2.311092 1.39585,2.165834 4.36019,-0.453738 1.88974,-1.669953 3.94666,-4.941077 4.6206,-7.348195 0.32609,-1.164664 0.62366,-1.531918 1.55735,-1.922039 1.29608,-0.541537 3.25864,-0.640299 3.54414,-0.178358 0.10326,0.167154 0.0343,0.707695 -0.15332,1.201204 -0.2368,0.622833 -0.22682,1.756435 0.0326,3.706086 0.61636,4.631592 -0.58952,7.166571 -4.29245,9.023603 -2.64901,1.328487 -3.11763,1.428022 -3.95658,0.840393 z m -15.65324,-2.978895 c 0.7055,-0.750978 0.78137,-1.102204 0.70148,-3.24746 -0.0584,-1.568208 0.0988,-2.960348 0.45173,-3.999823 0.29773,-0.876921 0.47298,-1.662747 0.38945,-1.746276 -0.49001,-0.490015 -3.54508,6.960573 -3.54508,8.645617 0,1.441244 0.83846,1.586933 2.00242,0.347942 z m 19.49864,0.165913 c 0.66811,-0.622434 0.71919,-0.948407 0.64312,-4.103956 l -0.0826,-3.427822 -1.27923,2.030506 c -0.70357,1.116776 -1.52465,2.313481 -1.82464,2.659343 -0.522,0.601852 -0.51216,0.611378 0.22945,0.221936 1.05972,-0.556498 1.17654,-0.309721 0.51252,1.082731 -0.46521,0.975552 -0.48999,1.2775 -0.13948,1.699837 0.57161,0.688743 1.07209,0.646819 1.94088,-0.162575 z m -15.97556,-7.192006 c 0.11428,-0.872742 0.10264,-1.490283 -0.0258,-1.372308 -0.27839,0.255638 -1.18302,3.553552 -1.16967,4.264163 0.0189,1.004889 0.99417,-1.354334 1.19549,-2.891855 z m 10.71965,-4.240827 c 1.53088,-3.209379 2.26353,-8.190512 0.89822,-6.106794 -0.61962,0.945665 -3.88086,9.420113 -3.85978,10.029766 0.0246,0.711652 1.99726,-1.901368 2.96156,-3.922972 z m -32.9249,13.316475 c -0.66938,-0.613122 -1.13298,-1.198828 -1.03024,-1.301572 0.4966,-0.4966 5.32971,-15.82983 4.98907,-15.828015 -0.21082,9.95e-4 -0.81606,0.227728 -1.34498,0.503564 -1.11041,0.579077 -1.18331,0.53637 -1.71255,-1.003068 -0.47773,-1.389623 -0.48804,-1.379762 2.89161,-2.766383 4.9787,-2.042681 8.89976,-2.551126 10.7892,-1.39904 1.21714,0.742151 2.4294,3.178213 2.4294,4.881959 0,1.453386 -1.26982,3.916927 -2.84239,5.514432 -2.47032,2.509507 -7.41008,4.545676 -8.61063,3.549303 -0.57142,-0.474241 -0.5285,-0.567907 -1.47246,3.213187 -0.37201,1.490114 -0.67638,3.165777 -0.67638,3.723699 0,0.78778 -0.21867,1.127478 -0.97879,1.520551 -0.53833,0.278381 -1.03167,0.506149 -1.09629,0.506149 -0.0647,0 -0.6652,-0.501644 -1.33457,-1.114766 z m 8.74063,-11.669337 c 2.21535,-1.122607 4.10227,-2.874819 4.92418,-4.572657 1.20205,-2.483111 0.13621,-3.607582 -2.72022,-2.869846 -2.41629,0.624057 -2.57767,0.694212 -2.51422,1.093029 0.0341,0.214253 -0.12418,0.837417 -0.35169,1.384809 -0.85339,2.053273 -2.01501,5.231649 -2.01501,5.513417 0,0.514519 0.97183,0.315301 2.67696,-0.548752 z m 34.87348,12.021127 c -0.70343,-0.748758 -0.70909,-0.821365 -0.21371,-2.74004 0.27987,-1.083996 1.62273,-5.271023 2.98411,-9.304502 1.36139,-4.033482 2.47525,-7.805216 2.47525,-8.381633 0,-0.826376 0.22804,-1.187066 1.0782,-1.70542 0.59301,-0.361564 1.54598,-0.657946 2.1177,-0.658629 1.66889,-0.002 1.60813,0.884089 -0.39886,5.816505 -0.99098,2.435432 -1.80178,4.615302 -1.80178,4.844156 0,0.228852 0.50449,-0.07288 1.1211,-0.670509 1.30767,-1.267451 3.37641,-1.863186 4.70971,-1.356262 0.83048,0.315746 0.87715,0.441991 0.72989,1.974529 -0.17889,1.861737 -1.30514,3.586137 -3.1023,4.749936 -1.18465,0.767151 -1.4391,1.7008 -0.79271,2.908612 0.93669,1.750207 4.126,-0.471242 5.84442,-4.070795 1.63184,-3.418214 3.35399,-5.102121 5.82294,-5.693656 0.6689,-0.160259 1.06133,-0.03862 1.54284,0.478216 0.36692,0.39384 1.24539,0.77357 2.03441,0.879399 0.76376,0.102439 1.465,0.385198 1.5583,0.62835 0.0933,0.243151 -0.46209,1.729251 -1.23419,3.302442 -1.41549,2.884082 -2.09239,5.781245 -1.35076,5.781245 0.21028,0 1.07446,-0.634477 1.92042,-1.409949 l 1.53811,-1.409949 -0.2431,0.995258 c -0.30323,1.241435 -1.23879,2.25975 -3.05273,3.322791 -2.04761,1.199976 -3.66789,0.983336 -4.18205,-0.559172 -0.0786,-0.235717 -0.67371,0.136394 -1.44965,0.906395 -0.72399,0.71845 -1.72542,1.519753 -2.22539,1.780666 -0.82427,0.43015 -0.99349,0.411058 -1.81456,-0.204742 -0.77027,-0.577691 -0.90552,-0.921565 -0.90552,-2.30228 v -1.623153 l -1.82464,1.202766 c -2.29587,1.51339 -3.37566,1.782171 -4.60524,1.146334 -1.02754,-0.531364 -1.35471,-1.313362 -1.36178,-3.254914 -0.009,-2.538602 -1.25912,-0.821655 -2.05819,2.827332 -0.42928,1.960323 -0.50135,2.077651 -1.45196,2.363569 -0.47234,0.142069 -0.91055,-0.03307 -1.40828,-0.562896 z m 20.2012,-7.458934 c 1.75936,-3.677551 1.91033,-4.298745 1.11852,-4.60259 -0.61842,-0.237307 -1.0665,0.300734 -2.80617,3.369549 -1.54603,2.727222 -2.46567,5.279459 -2.17514,6.036561 0.38089,0.992575 2.13118,-1.183982 3.86279,-4.80352 z m -13.37114,-0.66113 c 1.51669,-0.991522 2.92712,-3.723562 1.92231,-3.723562 -1.01366,0 -4.17022,3.394483 -4.17022,4.484544 0,0.285628 1.34176,-0.168594 2.24791,-0.760982 z M 73.003576,43.827811 c -2.142512,-0.577752 -3.608189,-1.738109 -4.369564,-3.459318 -1.263513,-2.856384 -0.01055,-5.881932 3.11317,-7.517409 l 1.777036,-0.930398 -1.195869,-1.201519 c -2.047162,-2.056829 -2.007339,-5.131423 0.09752,-7.528719 1.559257,-1.775896 3.347395,-2.552401 6.237813,-2.708793 2.118111,-0.114607 2.709766,-0.02009 3.978355,0.635528 2.626767,1.357539 3.670395,3.963032 2.496591,6.232917 -0.612711,1.184851 -2.345071,1.836221 -3.607263,1.356334 -1.050817,-0.399519 -1.04891,-0.383954 -0.214903,-1.75185 2.0399,-3.345742 -0.852657,-6.225104 -3.979791,-3.961636 -2.431352,1.75985 -2.714115,6.615575 -0.445438,7.649253 0.444625,0.202585 1.099963,0.368335 1.456305,0.368335 0.356342,0 0.647896,0.194076 0.647896,0.431279 0,0.702774 -0.73262,1.227485 -1.713857,1.227485 -3.704477,0 -6.116706,4.827078 -3.646608,7.297175 1.836284,1.83628 6.18078,2.135678 9.606408,0.662013 l 1.61128,-0.693155 0.720666,-4.39196 c 0.396369,-2.415578 0.720671,-5.020812 0.720671,-5.78941 v -1.397448 h 1.607345 c 1.175778,0 1.765545,0.174807 2.196544,0.651057 0.565602,0.624983 0.553214,0.856649 -0.309359,5.784657 -0.494209,2.823476 -0.800795,5.441632 -0.681304,5.818118 0.330028,1.039819 1.620045,0.865503 2.649579,-0.358031 1.806528,-2.146937 3.778787,-7.202449 3.945089,-10.112468 l 0.09248,-1.617457 1.512906,-0.09947 c 1.611645,-0.105964 2.592073,0.475551 2.584803,1.533119 -0.002,0.306278 -0.34539,2.572268 -0.762837,5.035531 -0.900719,5.314907 -0.810928,6.094443 0.719127,6.243051 0.879003,0.08537 1.289993,-0.109279 2.143363,-1.015133 0.96126,-1.020388 1.12324,-1.520074 1.80864,-5.579545 0.41406,-2.452333 0.74996,-4.86933 0.74645,-5.371106 -0.006,-0.855093 0.0833,-0.91232 1.4231,-0.91232 2.10162,0 2.65472,0.538206 2.50375,2.436381 l -0.12409,1.560127 1.09156,-1.314092 c 2.03318,-2.447678 4.34952,-3.303331 5.93541,-2.192527 2.20504,1.544465 0.24467,5.671524 -2.38097,5.012531 -0.57622,-0.144622 -0.67076,-0.372877 -0.55722,-1.34541 0.29482,-2.525271 -2.13396,-0.685022 -3.92731,2.975672 -1.02182,2.085802 -2.07371,6.379299 -1.91003,7.796158 0.0857,0.742157 -0.0377,0.840403 -1.17362,0.933888 -1.51414,0.124615 -2.87748,-0.652117 -2.87748,-1.63938 0,-0.63722 -0.0886,-0.612415 -1.15404,0.323038 -2.759044,2.422475 -6.477339,1.40615 -7.008517,-1.915644 l -0.215577,-1.348102 -0.913647,1.440682 c -1.188784,1.874508 -2.691949,2.917744 -4.497297,3.121232 -1.331236,0.150048 -1.556703,0.06076 -2.677891,-1.060422 l -1.224262,-1.224262 -1.897692,0.851632 c -3.311234,1.485993 -6.943318,1.872568 -9.957371,1.059794 z m 47.334644,0.109661 c -2.36252,-0.707371 -3.6629,-2.906181 -3.62291,-6.126006 0.0699,-5.629073 3.08471,-9.077822 8.18,-9.357396 2.0196,-0.110816 2.56207,-0.01725 3.66782,0.632642 1.75076,1.028985 2.68335,2.879087 2.68335,5.32336 0,1.04866 0.12178,1.90707 0.27063,1.907578 0.49021,0.0017 1.70505,-0.729823 2.60525,-1.568736 1.13222,-1.055136 1.78421,-0.73873 1.12089,0.543969 -0.55203,1.067503 -1.5048,1.756033 -3.19751,2.310701 -0.95837,0.31404 -1.34485,0.718294 -1.97696,2.0679 -1.62474,3.468875 -5.99448,5.384617 -9.73056,4.265988 z m 3.5522,-1.681513 c 0.84737,-0.386086 2.06938,-2.286243 2.55157,-3.967532 0.22319,-0.778232 0.1357,-1.258902 -0.39193,-2.153175 -0.79999,-1.355886 -0.61815,-2.670672 0.48906,-3.535955 0.68224,-0.533176 0.69548,-0.623792 0.21824,-1.492887 -0.56478,-1.028474 -1.84957,-1.361861 -2.95936,-0.767918 -2.28735,1.22415 -4.03734,9.920767 -2.33823,11.619882 0.75478,0.754784 1.2848,0.819672 2.43065,0.297585 z m 20.49906,1.399954 c -1.20319,-1.2032 -0.68208,-2.598838 1.18224,-3.166224 0.43256,-0.13164 0.79706,-0.58091 0.90663,-1.117437 0.43474,-2.128826 2.84865,-16.393962 2.84865,-16.834279 0,-0.652456 -0.87664,-0.599372 -2.53461,0.153484 -2.17226,0.986382 -2.7698,3.744774 -0.9122,4.211 0.90021,0.22594 0.91766,0.269087 0.457,1.129839 -0.4875,0.91091 -2.47342,1.194811 -3.83061,0.547611 -0.82052,-0.391275 -1.209,-0.868863 -1.50186,-1.846329 -0.35405,-1.181707 -0.31282,-1.483614 0.39728,-2.90946 1.18758,-2.384594 3.0277,-3.213112 7.50428,-3.378823 3.79681,-0.140547 4.7335,0.227424 4.7335,1.859509 0,0.446745 -0.6875,4.687511 -1.52779,9.423924 -0.84028,4.736413 -1.44188,8.697566 -1.33688,8.802562 0.29562,0.295622 7.15687,0.297901 8.87822,0.003 1.78725,-0.306247 2.14579,0.09572 1.56679,1.756624 -0.75574,2.167951 -4.03849,2.525473 -9.03072,0.983526 l -2.19242,-0.677163 -0.96396,0.712691 c -0.53019,0.391982 -1.63386,0.788202 -2.45261,0.880485 -1.21349,0.136779 -1.61846,0.03799 -2.19093,-0.534487 z m 19.63443,-0.0055 c -1.59895,-1.004203 -1.89679,-2.551299 -1.26487,-6.57012 0.28106,-1.787443 0.69126,-4.481528 0.91155,-5.986856 l 0.40054,-2.736959 h 1.27531 c 1.77269,0 2.55871,0.49532 2.55871,1.612414 0,0.509061 -0.30572,2.623381 -0.67938,4.698491 -0.37365,2.075106 -0.6349,4.377867 -0.58057,5.117249 0.0921,1.253224 0.17265,1.351427 1.18832,1.449124 0.86983,0.08367 1.30943,-0.117002 2.18023,-0.995258 1.01721,-1.025938 1.13981,-1.401824 1.81941,-5.578719 0.40079,-2.463264 0.72597,-4.889205 0.72262,-5.390981 -0.005,-0.846663 0.0909,-0.91232 1.34273,-0.91232 2.15485,0 2.63221,0.42193 2.63221,2.326529 v 1.639677 l 1.34017,-1.453923 c 2.28966,-2.483974 4.9746,-3.215738 6.7307,-1.834402 1.24111,0.976262 1.34975,2.292513 0.56761,6.876708 -0.79311,4.648518 -0.65214,5.383765 1.03223,5.383765 0.69584,0 1.2939,-0.296988 1.87482,-0.93101 0.7199,-0.785717 0.97142,-1.652921 1.61169,-5.556857 0.41728,-2.544216 0.76266,-5.036391 0.76753,-5.538167 0.008,-0.867318 0.0874,-0.91232 1.60127,-0.91232 2.66796,0 2.81344,0.545561 1.72512,6.469177 -1.02938,5.602759 -0.88863,6.769652 0.7653,6.344697 1.70422,-0.43788 4.73966,-6.789912 5.10276,-10.67817 l 0.19943,-2.135694 h 1.54444 c 2.66025,0 2.74287,0.375683 1.61737,7.353613 -0.60833,3.77155 -0.65795,4.622058 -0.29512,5.059228 1.0262,1.236506 3.64519,-0.121776 4.28497,-2.222305 0.40268,-1.32213 1.33736,-6.905584 1.45599,-8.697649 l 0.0878,-1.32701 1.55678,-0.100335 c 1.34366,-0.0866 1.62958,0.01078 2.08859,0.711314 0.34112,0.520623 0.45941,1.151375 0.32989,1.759102 l -0.20192,0.947449 0.99644,-1.124976 c 1.97608,-2.230981 3.8516,-2.875161 5.79411,-1.990092 0.87565,0.398976 1.54508,1.565654 1.54508,2.692764 0,0.594952 0.19017,0.485446 1.19443,-0.687814 2.05894,-2.405415 4.47287,-3.064133 6.21293,-1.695405 1.24112,0.976262 1.34976,2.292515 0.56762,6.876709 -0.79243,4.644568 -0.65146,5.383765 1.02679,5.383765 0.70921,0 1.30723,-0.311376 1.97884,-1.030344 0.52937,-0.566686 0.96249,-1.163841 0.96249,-1.32701 0,-0.163167 0.14928,-0.296667 0.33175,-0.296667 0.54495,0 0.37417,1.419241 -0.30475,2.532656 -0.34871,0.571872 -1.19494,1.467604 -1.88052,1.990516 -1.01001,0.770379 -1.58037,0.950747 -3.00647,0.950747 -3.38015,0 -4.27785,-2.076426 -3.29879,-7.630311 0.8633,-4.897181 0.65135,-6.065491 -0.91425,-5.039672 -1.63984,1.074464 -4.13163,7.268956 -4.36264,10.845343 l -0.11785,1.82464 -1.2943,0.09924 c -0.90313,0.06924 -1.5371,-0.09741 -2.09763,-0.55139 l -0.80332,-0.65062 0.93447,-5.552036 c 0.84186,-5.001815 0.88378,-5.602722 0.42302,-6.063484 -0.46076,-0.460764 -0.63957,-0.376761 -1.80431,0.847635 -1.59745,1.679269 -3.2926,6.124287 -3.63173,9.523086 -0.22693,2.274347 -0.26395,2.350969 -1.18665,2.456417 -1.47528,0.1686 -2.51939,-0.218028 -2.91122,-1.078014 l -0.35766,-0.78499 -1.18263,0.802552 c -0.65044,0.441404 -1.53042,0.889841 -1.9555,0.996529 -2.3205,0.582409 -4.73227,-1.172845 -4.76906,-3.47084 -0.0175,-1.096266 -0.0592,-1.152 -0.41469,-0.555111 -1.00986,1.695535 -3.42432,3.762105 -4.66803,3.99543 -1.57015,0.294563 -3.36567,-0.466514 -3.90784,-1.656444 l -0.37257,-0.817711 -1.33421,1.142035 c -3.01415,2.580001 -6.71684,1.59113 -7.10011,-1.896209 -0.0865,-0.786834 0.0796,-2.774205 0.36911,-4.41638 0.91302,-5.179276 0.60854,-6.138705 -1.49437,-4.708845 -1.99298,1.355107 -4.50805,6.986791 -4.76978,10.680393 -0.11655,1.644647 -0.12788,1.659653 -1.33236,1.763239 -1.33631,0.114944 -2.82282,-0.645377 -2.82282,-1.443826 0,-0.37488 -0.31991,-0.282978 -1.32094,0.379469 -1.77259,1.173045 -3.82501,1.368112 -5.21432,0.495579 z M 2.355989,42.456003 C 1.4784504,41.04415 1.262046,38.432855 1.8198736,35.986826 2.008137,35.16131 1.9862175,34.966278 1.744037,35.312081 1.4657473,35.709445 1.3282079,35.618365 0.99257269,34.814452 0.20302205,32.923315 0.47929634,30.960127 1.9546761,27.977826 c 0.7544978,-1.525131 1.453058,-3.183505 1.5523557,-3.685281 0.099298,-0.501776 0.25803,-1.285542 0.3527392,-1.741701 0.094705,-0.45616 0.3378733,-0.829382 0.540369,-0.829382 0.7363136,0 -0.076137,3.32782 -1.553522,6.363271 -1.5209781,3.125021 -1.804977,4.696961 -1.0869534,6.016325 L 2.1540252,34.825692 2.38289,33.99631 c 0.1258753,-0.45616 0.1510791,-1.687791 0.056014,-2.736959 -0.1074371,-1.185628 -0.045108,-1.907578 0.1646872,-1.907578 0.828518,0 0.9851872,4.018832 0.2510144,6.438965 -0.6396679,2.108606 -0.6296012,4.611424 0.023627,5.874629 0.8642458,1.671267 0.4319223,2.325772 -0.5222436,0.790636 z m 10.620662,0.117441 c -0.45616,-0.379426 -0.831109,-0.785004 -0.833221,-0.901283 -0.0021,-0.116279 -0.20962,-0.703332 -0.461131,-1.30456 -0.85335,-2.039908 0.291824,-3.063959 3.409275,-3.048685 1.306017,0.0064 1.719557,0.27982 1.999391,1.321932 0.204425,0.761286 0.178138,0.750945 -0.320161,-0.125934 -0.519335,-0.913895 -0.621537,-0.947193 -2.357301,-0.768046 -2.967373,0.306257 -3.43834,1.183613 -1.833339,3.415286 1.674953,2.32894 1.728389,2.519145 0.396487,1.41129 z m 5.308042,-0.408573 c 0,-0.06889 0.261255,-0.330144 0.580567,-0.580568 0.526179,-0.412657 0.537912,-0.400923 0.125256,0.125257 -0.433392,0.552617 -0.705823,0.728356 -0.705823,0.455311 z m 44.034184,-7.041056 c -0.115804,-0.115805 -0.122019,-1.158686 -0.0138,-2.317515 0.188131,-2.014651 0.129902,-2.241862 -1.329027,-5.185951 -1.567074,-3.16232 -2.38699,-6.453004 -1.537275,-6.169766 0.240089,0.08002 0.60862,0.957482 0.818957,1.949895 0.210339,0.992412 1.004083,3.065445 1.763879,4.606735 0.864492,1.75367 1.381448,3.260213 1.381448,4.025882 0,1.322103 -0.740843,3.434057 -1.084177,3.09072 z M 1.3653082,25.871475 c 0,-2.266349 0.4960739,-3.281038 2.8625516,-5.855173 1.0018432,-1.089756 2.0988581,-2.628345 2.4378087,-3.419087 0.7563308,-1.764446 1.5500314,-2.417009 1.1916172,-0.979721 -0.4273472,1.713718 -1.1504083,2.913032 -3.0178119,5.005532 -2.0301831,2.2749 -2.8106603,3.815178 -2.8106603,5.546861 0,0.633717 -0.1492887,1.244476 -0.3317527,1.357246 -0.2061065,0.12738 -0.3317526,-0.499676 -0.3317526,-1.655658 z m 60.6277978,1.297272 c -0.136848,-0.137404 -0.248814,-0.829514 -0.248814,-1.538022 0,-1.684057 -0.695025,-2.973767 -2.911226,-5.40215 -2.241009,-2.455568 -3.754119,-5.47392 -2.744092,-5.47392 0.173924,0 0.625788,0.699817 1.004142,1.555147 0.378354,0.855329 1.479856,2.385539 2.447788,3.400464 1.834701,1.923781 2.435725,2.830067 2.861605,4.315021 0.290855,1.014159 -0.03537,3.519012 -0.409403,3.14346 z M 165.31748,24.972638 c -0.6043,-0.604298 -0.48011,-2.410623 0.20859,-3.033882 0.70716,-0.639971 2.40128,-0.725891 2.97623,-0.150944 0.6043,0.604297 0.48011,2.410621 -0.20859,3.033882 -0.70716,0.63997 -2.40129,0.725891 -2.97623,0.150944 z M 3.6875768,19.157314 c 0,-2.008654 1.3242186,-3.788613 4.2848095,-5.759458 1.5355566,-1.022212 3.2295347,-2.404063 3.7643947,-3.070782 0.929809,-1.1590344 1.571622,-1.5376694 1.571622,-0.9271704 0,0.6636884 -2.833165,3.4250204 -4.6407098,4.5230454 C 6.3178217,15.350422 5.151991,16.66162 4.6825444,18.405012 4.2509871,20.007697 3.6875768,20.433694 3.6875768,19.157314 Z M 58.927645,17.750223 c -0.59666,-1.796379 -1.502975,-2.712825 -4.222219,-4.269415 -1.810839,-1.036587 -3.068148,-2.205957 -4.070058,-3.7853834 -0.870383,-1.372089 -0.03984,-1.10151 1.391786,0.4534254 0.691594,0.751159 2.470841,2.166821 3.953881,3.145913 2.740711,1.809395 3.440717,2.704665 3.929985,5.026234 0.359162,1.704227 -0.367907,1.282217 -0.983375,-0.570774 z M 7.6686086,12.928472 c 0,-0.104921 0.2944119,-0.767862 0.6542495,-1.473201 0.8322648,-1.6313754 1.9090979,-2.4714804 4.2666349,-3.3286764 1.034025,-0.37597 2.49687,-0.910176 3.250768,-1.187128 0.753898,-0.276951 2.503242,-1.535915 3.887429,-2.797698 2.667889,-2.431969 4.267252,-3.15734804 6.137007,-2.783397 1.333494,0.266699 1.017223,0.78968 -0.477558,0.78968 -1.804973,0 -3.253412,0.782982 -5.70113,3.081864 -2.032983,1.909363 -2.593972,2.237227 -5.46402,3.193384 -3.136879,1.045053 -5.2263697,2.4694374 -5.2263697,3.5627644 0,0.232637 -0.2985774,0.582772 -0.6635053,0.778075 -0.364928,0.195304 -0.6635054,0.269254 -0.6635054,0.164333 z M 54.446029,11.271681 C 53.299458,9.6051986 52.523585,9.1243666 49.645305,8.2965276 c -2.712426,-0.780135 -5.815657,-2.540383 -5.815657,-3.298817 0,-0.415631 1.267621,-0.169309 1.678887,0.326238 0.608537,0.733245 2.459147,1.618204 4.782961,2.287207 2.917129,0.839812 4.421331,2.023474 5.382297,4.2353424 0.614475,1.414354 -0.08426,1.087223 -1.227764,-0.574817 z M 13.640156,7.2584926 c 0,-0.108681 0.295637,-0.612786 0.656972,-1.120233 0.714619,-1.003591 2.187562,-1.796253 3.94508,-2.12304 0.946826,-0.17605 1.057957,-0.13487 0.72352,0.268103 -0.217321,0.261855 -0.832778,0.572225 -1.367683,0.68971 -0.534906,0.117485 -1.583735,0.724235 -2.330733,1.348336 -1.374785,1.148598 -1.627156,1.293946 -1.627156,0.937124 z m 34.808919,-0.993995 c -1.283723,-1.372426 -1.90987,-1.561609 -5.946391,-1.796637 -2.844225,-0.165606 -4.144456,-0.391848 -5.108921,-0.88896 -1.665435,-0.85841 -1.02307,-1.328631 0.886887,-0.649215 0.771149,0.274316 2.865003,0.580372 4.653011,0.680127 3.714577,0.20724 5.108141,0.728623 6.370265,2.383354 1.042333,1.366568 0.369393,1.580162 -0.854851,0.271331 z M 21.228987,4.3544246 c 0.24996,-0.301185 0.86972,-0.54761 1.377246,-0.54761 0.507521,0 2.384412,-0.746443 4.170864,-1.658763 3.446167,-1.75991304 5.424123,-2.10579204 7.25965,-1.26946904 1.269332,0.57834504 0.399596,0.86937704 -1.459807,0.48848304 -1.566875,-0.320971 -1.725218,-0.277885 -5.052076,1.374695 -3.602927,1.789715 -7.209513,2.713528 -6.295877,1.612664 z m 7.719312,-1.506479 c -0.756247,-0.479179 0.15116,-0.760504 1.702577,-0.527854 0.971578,0.145696 2.299657,-0.014 4.228871,-0.508492 3.240892,-0.83070304 5.0836,-0.720355 6.919509,0.414369 1.444852,0.893021 0.674536,1.262575 -0.916636,0.439749 -1.252307,-0.647594 -3.313407,-0.654867 -5.678541,-0.02004 -2.00233,0.537448 -5.545973,0.652023 -6.25578,0.202265 z"
     id="path66"
     inkscape:connector-curvature="0" />
</svg>
